<svg width="144" height="46" viewBox="0 0 144 46" fill="none" xmlns="http://www.w3.org/2000/svg">
<g filter="url(#filter0_d_1206_1773)">
<path d="M18.365 8.555C23.9883 8.555 26.8 10.8533 26.8 15.45C26.8 16.22 26.7183 17.0483 26.555 17.935L25.33 24.935C24.77 28.1783 23.5566 30.5817 21.69 32.145C19.8233 33.7083 17.1983 34.49 13.815 34.49C10.4316 34.49 8.07496 33.7083 6.74496 32.145C5.83496 31.0717 5.37996 29.59 5.37996 27.7C5.37996 26.86 5.47329 25.9383 5.65996 24.935L6.88496 17.935C7.98163 11.6817 11.8083 8.555 18.365 8.555ZM14.76 29.065C15.9266 29.065 16.86 28.7617 17.56 28.155C18.26 27.5483 18.75 26.4283 19.03 24.795L20.22 18.075C20.29 17.6083 20.325 17.1883 20.325 16.815C20.325 14.925 19.3683 13.98 17.455 13.98C15.0516 14.0267 13.6166 15.3917 13.15 18.075L11.96 24.795C11.8666 25.3783 11.82 25.985 11.82 26.615C11.82 28.2483 12.8 29.065 14.76 29.065ZM42.2371 8.8C45.2938 8.8 47.4755 9.57 48.7821 11.11C49.7388 12.2767 50.2171 13.735 50.2171 15.485C50.2171 16.115 50.1588 16.78 50.0422 17.48L48.6771 25.285C48.2105 27.9217 47.0671 30.0333 45.2471 31.62C43.4271 33.2067 41.0705 34 38.1771 34H27.9921L32.4371 8.8H42.2371ZM40.0321 14.26H37.7571L35.2721 28.54H38.5971C39.6938 28.54 40.5455 28.2483 41.1521 27.665C41.7821 27.0583 42.2138 26.0783 42.4471 24.725L43.4621 18.985C43.5555 18.4717 43.6021 18.005 43.6021 17.585C43.6021 15.3683 42.4121 14.26 40.0321 14.26ZM68.9752 34H51.4052L55.8502 8.8H73.4202L72.4402 14.26H61.1702L60.3652 18.985H69.6752L68.6952 24.445H59.3852L58.6852 28.54H69.9552L68.9752 34ZM90.5768 34H73.0068L77.4518 8.8H95.0218L94.0418 14.26H82.7718L81.9668 18.985H91.2768L90.2968 24.445H80.9868L80.2868 28.54H91.5568L90.5768 34ZM103.393 34.49C100.08 34.49 97.7934 33.72 96.5334 32.18C95.67 31.1067 95.2384 29.6367 95.2384 27.77C95.2384 26.9067 95.3317 25.9617 95.5184 24.935L96.7434 17.935C97.84 11.6817 101.667 8.555 108.223 8.555C110.93 8.555 112.983 9.13833 114.383 10.305C115.783 11.4483 116.483 13.0233 116.483 15.03C116.483 15.8467 116.367 16.675 116.133 17.515C115.923 18.355 115.713 18.985 115.503 19.405L115.153 20.035H108.958C109.565 19.195 109.868 18.2267 109.868 17.13C109.868 15.03 108.993 13.98 107.243 13.98C104.887 13.98 103.475 15.345 103.008 18.075L101.818 24.795C101.702 25.425 101.643 26.0433 101.643 26.65C101.643 28.26 102.588 29.065 104.478 29.065C106.392 29.065 107.617 28.1083 108.153 26.195H105.283L105.983 22.31H115.258L114.698 25.32L114.523 26.335C113.543 31.7717 109.833 34.49 103.393 34.49ZM130.953 8.555C136.576 8.555 139.388 10.8533 139.388 15.45C139.388 16.22 139.306 17.0483 139.143 17.935L137.918 24.935C137.358 28.1783 136.145 30.5817 134.278 32.145C132.411 33.7083 129.786 34.49 126.403 34.49C123.02 34.49 120.663 33.7083 119.333 32.145C118.423 31.0717 117.968 29.59 117.968 27.7C117.968 26.86 118.061 25.9383 118.248 24.935L119.473 17.935C120.57 11.6817 124.396 8.555 130.953 8.555ZM127.348 29.065C128.515 29.065 129.448 28.7617 130.148 28.155C130.848 27.5483 131.338 26.4283 131.618 24.795L132.808 18.075C132.878 17.6083 132.913 17.1883 132.913 16.815C132.913 14.925 131.956 13.98 130.043 13.98C127.64 14.0267 126.205 15.3917 125.738 18.075L124.548 24.795C124.455 25.3783 124.408 25.985 124.408 26.615C124.408 28.2483 125.388 29.065 127.348 29.065Z" fill="#5AB27D" fill-opacity="0.8" style="mix-blend-mode:multiply"/>
<path d="M17.365 7.555C22.9883 7.555 25.8 9.85333 25.8 14.45C25.8 15.22 25.7183 16.0483 25.555 16.935L24.33 23.935C23.77 27.1783 22.5566 29.5817 20.69 31.145C18.8233 32.7083 16.1983 33.49 12.815 33.49C9.43163 33.49 7.07496 32.7083 5.74496 31.145C4.83496 30.0717 4.37996 28.59 4.37996 26.7C4.37996 25.86 4.47329 24.9383 4.65996 23.935L5.88496 16.935C6.98163 10.6817 10.8083 7.555 17.365 7.555ZM13.76 28.065C14.9266 28.065 15.86 27.7617 16.56 27.155C17.26 26.5483 17.75 25.4283 18.03 23.795L19.22 17.075C19.29 16.6083 19.325 16.1883 19.325 15.815C19.325 13.925 18.3683 12.98 16.455 12.98C14.0516 13.0267 12.6166 14.3917 12.15 17.075L10.96 23.795C10.8666 24.3783 10.82 24.985 10.82 25.615C10.82 27.2483 11.8 28.065 13.76 28.065ZM41.2371 7.8C44.2938 7.8 46.4755 8.57 47.7821 10.11C48.7388 11.2767 49.2171 12.735 49.2171 14.485C49.2171 15.115 49.1588 15.78 49.0422 16.48L47.6771 24.285C47.2105 26.9217 46.0671 29.0333 44.2471 30.62C42.4271 32.2067 40.0705 33 37.1771 33H26.9921L31.4371 7.8H41.2371ZM39.0321 13.26H36.7571L34.2721 27.54H37.5971C38.6938 27.54 39.5455 27.2483 40.1521 26.665C40.7821 26.0583 41.2138 25.0783 41.4471 23.725L42.4621 17.985C42.5555 17.4717 42.6021 17.005 42.6021 16.585C42.6021 14.3683 41.4121 13.26 39.0321 13.26ZM67.9752 33H50.4052L54.8502 7.8H72.4202L71.4402 13.26H60.1702L59.3652 17.985H68.6752L67.6952 23.445H58.3852L57.6852 27.54H68.9552L67.9752 33ZM89.5768 33H72.0068L76.4518 7.8H94.0218L93.0418 13.26H81.7718L80.9668 17.985H90.2768L89.2968 23.445H79.9868L79.2868 27.54H90.5568L89.5768 33ZM102.393 33.49C99.08 33.49 96.7934 32.72 95.5334 31.18C94.67 30.1067 94.2384 28.6367 94.2384 26.77C94.2384 25.9067 94.3317 24.9617 94.5184 23.935L95.7434 16.935C96.84 10.6817 100.667 7.555 107.223 7.555C109.93 7.555 111.983 8.13833 113.383 9.305C114.783 10.4483 115.483 12.0233 115.483 14.03C115.483 14.8467 115.367 15.675 115.133 16.515C114.923 17.355 114.713 17.985 114.503 18.405L114.153 19.035H107.958C108.565 18.195 108.868 17.2267 108.868 16.13C108.868 14.03 107.993 12.98 106.243 12.98C103.887 12.98 102.475 14.345 102.008 17.075L100.818 23.795C100.702 24.425 100.643 25.0433 100.643 25.65C100.643 27.26 101.588 28.065 103.478 28.065C105.392 28.065 106.617 27.1083 107.153 25.195H104.283L104.983 21.31H114.258L113.698 24.32L113.523 25.335C112.543 30.7717 108.833 33.49 102.393 33.49ZM129.953 7.555C135.576 7.555 138.388 9.85333 138.388 14.45C138.388 15.22 138.306 16.0483 138.143 16.935L136.918 23.935C136.358 27.1783 135.145 29.5817 133.278 31.145C131.411 32.7083 128.786 33.49 125.403 33.49C122.02 33.49 119.663 32.7083 118.333 31.145C117.423 30.0717 116.968 28.59 116.968 26.7C116.968 25.86 117.061 24.9383 117.248 23.935L118.473 16.935C119.57 10.6817 123.396 7.555 129.953 7.555ZM126.348 28.065C127.515 28.065 128.448 27.7617 129.148 27.155C129.848 26.5483 130.338 25.4283 130.618 23.795L131.808 17.075C131.878 16.6083 131.913 16.1883 131.913 15.815C131.913 13.925 130.956 12.98 129.043 12.98C126.64 13.0267 125.205 14.3917 124.738 17.075L123.548 23.795C123.455 24.3783 123.408 24.985 123.408 25.615C123.408 27.2483 124.388 28.065 126.348 28.065Z" fill="white"/>
</g>
<defs>
<filter id="filter0_d_1206_1773" x="0.379883" y="3.55518" width="143.008" height="34.9351" filterUnits="userSpaceOnUse" color-interpolation-filters="sRGB">
<feFlood flood-opacity="0" result="BackgroundImageFix"/>
<feColorMatrix in="SourceAlpha" type="matrix" values="0 0 0 0 0 0 0 0 0 0 0 0 0 0 0 0 0 0 127 0" result="hardAlpha"/>
<feOffset/>
<feGaussianBlur stdDeviation="2"/>
<feComposite in2="hardAlpha" operator="out"/>
<feColorMatrix type="matrix" values="0 0 0 0 0.0288021 0 0 0 0 0.329167 0 0 0 0 0.148265 0 0 0 0.28 0"/>
<feBlend mode="normal" in2="BackgroundImageFix" result="effect1_dropShadow_1206_1773"/>
<feBlend mode="normal" in="SourceGraphic" in2="effect1_dropShadow_1206_1773" result="shape"/>
</filter>
</defs>
</svg>
